<?xml version="1.0" standalone="no"?>
<!DOCTYPE svg PUBLIC "-//W3C//DTD SVG 20010904//EN"
 "http://www.w3.org/TR/2001/REC-SVG-20010904/DTD/svg10.dtd">
<svg version="1.0" xmlns="http://www.w3.org/2000/svg"
 width="400.000000pt" height="400.000000pt" viewBox="0 0 400.000000 400.000000"
 preserveAspectRatio="xMidYMid meet">

<g transform="translate(0.000000,400.000000) scale(0.100000,-0.100000)"
fill="#6D7B8D" stroke="none">
<path d="M330 2576 c0 -822 0 -834 20 -859 20 -26 77 -67 335 -242 72 -49 171
-117 220 -152 50 -34 127 -87 173 -118 45 -31 89 -69 97 -85 12 -23 15 -77 15
-280 l0 -250 370 0 370 0 1 468 c1 524 2 507 -17 543 -15 29 -34 40 -184 98
-58 23 -114 46 -125 51 -11 5 -173 70 -360 144 -527 209 -488 191 -516 239
l-24 42 -3 618 -3 617 -184 0 -185 0 0 -834z"/>
<path d="M927 3400 c-47 -9 -66 -26 -68 -65 -2 -16 -2 -275 -1 -574 l2 -544
34 -31 c19 -17 68 -44 112 -60 73 -26 185 -70 471 -182 61 -24 202 -78 312
-120 l201 -76 163 62 c89 34 176 68 192 75 17 7 68 27 115 44 47 18 93 36 102
42 10 5 23 9 28 9 6 0 30 9 53 19 23 11 121 49 217 86 197 75 232 94 248 130
9 19 12 179 12 584 0 541 -1 558 -20 578 -11 13 -38 24 -62 28 -24 3 -255 5
-515 3 l-472 -3 -28 -27 c-16 -16 -32 -28 -35 -28 -4 0 -20 14 -36 30 l-30 30
-479 -1 c-263 -1 -495 -5 -516 -9z"/>
<path d="M3260 2800 c0 -602 0 -611 -21 -656 -26 -55 -29 -56 -309 -167 -118
-47 -336 -133 -485 -192 -148 -58 -284 -113 -302 -121 -17 -8 -35 -14 -40 -14
-5 0 -22 -14 -39 -31 l-29 -30 0 -500 0 -500 365 0 365 0 5 258 c3 142 9 266
14 275 8 18 57 54 276 203 63 44 153 105 200 138 47 32 143 97 213 145 74 49
135 98 143 113 11 22 14 172 14 855 l1 829 -185 3 -186 2 0 -610z"/>
</g>
</svg>
